<svg width="217" height="8" viewBox="0 0 217 8" fill="none" xmlns="http://www.w3.org/2000/svg">
<path d="M1 3.5C0.723858 3.5 0.5 3.72386 0.5 4C0.5 4.27614 0.723858 4.5 1 4.5V3.5ZM216.354 4.35355C216.549 4.15829 216.549 3.84171 216.354 3.64645L213.172 0.464466C212.976 0.269204 212.66 0.269204 212.464 0.464466C212.269 0.659728 212.269 0.976311 212.464 1.17157L215.293 4L212.464 6.82843C212.269 7.02369 212.269 7.34027 212.464 7.53553C212.66 7.7308 212.976 7.7308 213.172 7.53553L216.354 4.35355ZM1 4.5H216V3.5H1V4.5Z" fill="#2C2C2C"/>
</svg>
