<svg width="20" height="20" viewBox="0 0 20 20" fill="none" xmlns="http://www.w3.org/2000/svg">
<circle cx="10" cy="10" r="10" fill="#2C2C2C"/>
<path d="M6.92763 8.81071L7.72459 12.5689L7.72444 12.5689C7.73329 12.6106 7.77049 12.6391 7.8116 12.6384H13.7149C13.755 12.6384 13.7889 12.6114 13.7993 12.5746L15.1059 8.61248L15.106 8.6125C15.1211 8.56653 15.0961 8.51695 15.0502 8.50179C15.0384 8.49791 15.0264 8.49666 15.0148 8.49773L8.54982 8.49789V8.4979H8.3693L7.39791 8.49793L6.97583 6.50756C6.94979 6.38472 6.84452 6.29395 6.71764 6.29395H4.12332C3.97815 6.29395 3.86035 6.41174 3.86035 6.55691C3.86035 6.70208 3.97815 6.81987 4.12332 6.81987H6.50474L6.82443 8.3274C6.85865 8.48883 6.89334 8.64904 6.92762 8.8107L6.92763 8.81071Z" fill="white"/>
<path d="M12.8738 13.1582C13.0418 13.1582 13.1938 13.2263 13.3039 13.3364C13.414 13.4464 13.4821 13.5985 13.4821 13.7664C13.4821 13.9344 13.414 14.0864 13.3039 14.1965C13.1938 14.3066 13.0418 14.3746 12.8738 14.3746C12.7059 14.3746 12.5538 14.3066 12.4438 14.1965C12.3337 14.0864 12.2656 13.9343 12.2656 13.7664C12.2656 13.5985 12.3337 13.4464 12.4438 13.3364C12.5538 13.2263 12.7059 13.1582 12.8738 13.1582Z" fill="white"/>
<path d="M8.80061 13.1582C8.96855 13.1582 9.12061 13.2263 9.23068 13.3364C9.34075 13.4464 9.40883 13.5985 9.40883 13.7664C9.40883 13.9344 9.34074 14.0864 9.23068 14.1965C9.12061 14.3066 8.96854 14.3746 8.80061 14.3746C8.63268 14.3746 8.4806 14.3066 8.37053 14.1965C8.26047 14.0864 8.19238 13.9344 8.19238 13.7664C8.19238 13.5985 8.26046 13.4464 8.37053 13.3364C8.48061 13.2263 8.63267 13.1582 8.80061 13.1582Z" fill="white"/>
</svg>
