<svg width="217" height="8" viewBox="0 0 217 8" fill="none" xmlns="http://www.w3.org/2000/svg">
<path d="M216 3.5C216.276 3.5 216.5 3.72386 216.5 4C216.5 4.27614 216.276 4.5 216 4.5V3.5ZM0.646439 4.35355C0.451172 4.15829 0.451172 3.84171 0.646439 3.64645L3.82841 0.464466C4.02368 0.269204 4.34026 0.269204 4.53552 0.464466C4.73077 0.659728 4.73077 0.976311 4.53552 1.17157L1.70709 4L4.53552 6.82843C4.73077 7.02369 4.73077 7.34027 4.53552 7.53553C4.34026 7.7308 4.02368 7.7308 3.82841 7.53553L0.646439 4.35355ZM216 4.5H0.999985V3.5H216V4.5Z" fill="#2C2C2C"/>
</svg>
