<svg width="20" height="21" viewBox="0 0 20 21" fill="none" xmlns="http://www.w3.org/2000/svg">
<g clip-path="url(#clip0_204_1050)">
<path d="M14.1904 0.907227H5.80969C2.60621 0.907227 0 3.51344 0 6.71691V15.0975C0 18.301 2.60621 20.9072 5.80969 20.9072H14.1903C17.3938 20.9072 20 18.301 20 15.0976V6.71691C20 3.51344 17.3938 0.907227 14.1904 0.907227ZM18.4375 15.0975C18.4375 17.4395 16.5322 19.3447 14.1904 19.3447H5.80969C3.46777 19.3447 1.5625 17.4395 1.5625 15.0976V6.71691C1.5625 4.375 3.46777 2.46973 5.80969 2.46973H14.1903C16.5322 2.46973 18.4375 4.375 18.4375 6.71691V15.0975Z" fill="#2C2C2C"/>
<path d="M10 5.5166C7.02758 5.5166 4.60938 7.9348 4.60938 10.9072C4.60938 13.8796 7.02758 16.2979 10 16.2979C12.9724 16.2979 15.3906 13.8796 15.3906 10.9072C15.3906 7.9348 12.9724 5.5166 10 5.5166ZM10 14.7354C7.88918 14.7354 6.17188 13.018 6.17188 10.9072C6.17188 8.79641 7.88918 7.0791 10 7.0791C12.1108 7.0791 13.8281 8.79641 13.8281 10.9072C13.8281 13.018 12.1108 14.7354 10 14.7354Z" fill="#2C2C2C"/>
<path d="M15.4688 6.21973C15.9002 6.21973 16.25 5.86995 16.25 5.43848C16.25 5.007 15.9002 4.65723 15.4688 4.65723C15.0373 4.65723 14.6875 5.007 14.6875 5.43848C14.6875 5.86995 15.0373 6.21973 15.4688 6.21973Z" fill="#2C2C2C"/>
</g>
<defs>
<clipPath id="clip0_204_1050">
<rect width="20" height="20" fill="white" transform="translate(0 0.907227)"/>
</clipPath>
</defs>
</svg>
