<svg width="15" height="15" viewBox="0 0 15 15" fill="none" xmlns="http://www.w3.org/2000/svg">
<path d="M14.9994 13.4004L14.4885 1.54061C14.4797 0.686618 13.7803 0 12.9219 0H2.07732C1.21919 0 0.52001 0.686659 0.511179 1.54064L0.000624273 13.4031C0.000211447 13.4127 0 13.4234 0 13.4329C0 14.2964 0.702791 15 1.56664 15H13.4334C14.2972 15 15 14.2951 15 13.4316C15 13.422 14.9998 13.41 14.9994 13.4004ZM13.4334 13.6676H1.56664C1.43757 13.6676 1.33576 13.5675 1.33072 13.4421L1.841 1.58187C1.8414 1.57226 1.84162 1.5666 1.84162 1.55703C1.84162 1.4289 1.94516 1.33244 2.07732 1.33244H12.9219C13.0543 1.33244 13.1581 1.4281 13.1581 1.55624C13.1581 1.56583 13.1583 1.57308 13.1587 1.58265L13.6693 13.4433C13.6642 13.5687 13.5625 13.6676 13.4334 13.6676Z" fill="#2C2C2C"/>
<path d="M9.7207 2.59033C9.35329 2.59033 9.05111 2.88892 9.05111 3.25727V5.2728C9.05111 6.12193 8.35824 6.81277 7.50514 6.81277C6.65249 6.81277 5.95996 6.12193 5.95996 5.2728V3.25727C5.95996 2.88892 5.66281 2.59033 5.29541 2.59033C4.928 2.59033 4.63086 2.88892 4.63086 3.25727V5.2728C4.63086 6.85743 5.92387 8.14663 7.51018 8.14663C9.09692 8.14663 10.3903 6.85743 10.3903 5.2728V3.25727C10.3903 2.88892 10.0881 2.59033 9.7207 2.59033Z" fill="#2C2C2C"/>
</svg>
