<svg width="10" height="7" viewBox="0 0 10 7" fill="none" xmlns="http://www.w3.org/2000/svg">
<path d="M3.49997 5.1L1.74997 3.35C1.70421 3.30368 1.64971 3.26691 1.58963 3.24181C1.52954 3.21671 1.46508 3.20378 1.39997 3.20378C1.33485 3.20378 1.27039 3.21671 1.21031 3.24181C1.15023 3.26691 1.09573 3.30368 1.04997 3.35C1.00365 3.39577 0.966872 3.45027 0.941772 3.51035C0.916672 3.57043 0.903748 3.63489 0.903748 3.7C0.903748 3.76512 0.916672 3.82958 0.941772 3.88966C0.966872 3.94974 1.00365 4.00424 1.04997 4.05L3.14497 6.145C3.33997 6.34 3.65497 6.34 3.84997 6.145L9.14997 0.850004C9.19629 0.804242 9.23306 0.749742 9.25816 0.689662C9.28326 0.629581 9.29619 0.565116 9.29619 0.500004C9.29619 0.434891 9.28326 0.370426 9.25816 0.310346C9.23306 0.250266 9.19629 0.195765 9.14997 0.150004C9.10421 0.103684 9.04971 0.0669081 8.98963 0.0418084C8.92955 0.0167086 8.86508 0.00378418 8.79997 0.00378418C8.73486 0.00378418 8.67039 0.0167086 8.61031 0.0418084C8.55023 0.0669081 8.49573 0.103684 8.44997 0.150004L3.49997 5.1Z" fill="#2C2C2C"/>
</svg>
