<svg width="16" height="16" viewBox="0 0 16 16" fill="none" xmlns="http://www.w3.org/2000/svg">
<path d="M9.76291 8.00023L15.1379 2.63773C15.3733 2.40235 15.5055 2.08311 15.5055 1.75023C15.5055 1.41735 15.3733 1.09811 15.1379 0.862732C14.9025 0.627352 14.5833 0.495117 14.2504 0.495117C13.9175 0.495117 13.5983 0.627352 13.3629 0.862732L8.00041 6.23773L2.63791 0.862732C2.40253 0.627352 2.08329 0.495117 1.75041 0.495117C1.41753 0.495117 1.09829 0.627352 0.862912 0.862732C0.627532 1.09811 0.495297 1.41735 0.495297 1.75023C0.495297 2.08311 0.627532 2.40235 0.862912 2.63773L6.23791 8.00023L0.862912 13.3627C0.745751 13.4789 0.652759 13.6172 0.589298 13.7695C0.525837 13.9218 0.493164 14.0852 0.493164 14.2502C0.493164 14.4152 0.525837 14.5786 0.589298 14.731C0.652759 14.8833 0.745751 15.0215 0.862912 15.1377C0.979116 15.2549 1.11737 15.3479 1.26969 15.4113C1.42201 15.4748 1.5854 15.5075 1.75041 15.5075C1.91543 15.5075 2.07881 15.4748 2.23113 15.4113C2.38346 15.3479 2.52171 15.2549 2.63791 15.1377L8.00041 9.76273L13.3629 15.1377C13.4791 15.2549 13.6174 15.3479 13.7697 15.4113C13.922 15.4748 14.0854 15.5075 14.2504 15.5075C14.4154 15.5075 14.5788 15.4748 14.7311 15.4113C14.8835 15.3479 15.0217 15.2549 15.1379 15.1377C15.2551 15.0215 15.3481 14.8833 15.4115 14.731C15.475 14.5786 15.5077 14.4152 15.5077 14.2502C15.5077 14.0852 15.475 13.9218 15.4115 13.7695C15.3481 13.6172 15.2551 13.4789 15.1379 13.3627L9.76291 8.00023Z" fill="black"/>
</svg>
