<svg width="9" height="7" viewBox="0 0 9 7" fill="none" xmlns="http://www.w3.org/2000/svg">
<path d="M7.52438 0.728963L3.57018 4.57581L1.76134 2.674C1.70334 2.61298 1.6342 2.5643 1.55789 2.53073C1.48157 2.49717 1.39957 2.47937 1.31657 2.47837C1.23356 2.47737 1.15117 2.49317 1.07411 2.52488C0.997051 2.5566 0.926822 2.60359 0.867437 2.66319C0.808052 2.72279 0.760674 2.79383 0.728006 2.87224C0.695339 2.95065 0.678022 3.03491 0.677046 3.1202C0.676069 3.20549 0.691452 3.29014 0.722315 3.36932C0.753178 3.4485 0.798917 3.52066 0.856921 3.58168L3.10745 5.93733C3.16276 6.00096 3.23098 6.05135 3.30729 6.08496C3.3836 6.11856 3.46616 6.13457 3.54915 6.13184C3.71119 6.12731 3.86694 6.06635 3.99084 5.95895L8.38674 1.67987C8.50813 1.56443 8.58056 1.40463 8.58843 1.23487C8.5963 1.0651 8.53898 0.898955 8.4288 0.772186C8.31285 0.64604 8.15378 0.571042 7.98509 0.56298C7.81639 0.554918 7.65124 0.614421 7.52438 0.728963V0.728963Z" fill="#333333"/>
</svg>
