<svg viewBox="0 0 300 21" class="n-logo__item" xmlns="http://www.w3.org/2000/svg">
                                           <path fill-rule="evenodd" clip-rule="evenodd" d="M10.3687 13.6797C14.3157 13.6797 17.2327 11.1152 17.2327 7.13364C17.2327 3.15207 14.3226 0.62212 10.3687 0.62212H0V19.7765H5.01152V13.6797H10.3687ZM10.3687 5.28111C10.6182 5.26011 10.8692 5.29381 11.1043 5.37983C11.3395 5.46585 11.553 5.60213 11.73 5.77917C11.9071 5.95621 12.0434 6.16974 12.1294 6.40487C12.2154 6.64 12.2491 6.89106 12.2281 7.14055C12.2511 7.39142 12.2189 7.64428 12.1339 7.88142C12.0489 8.11855 11.9131 8.33423 11.7359 8.51335C11.5588 8.69247 11.3446 8.83069 11.1084 8.91834C10.8723 9.00598 10.6198 9.04093 10.3687 9.02074H5.01152V5.28111H10.3687ZM34.2857 20.1359C40.3548 20.1359 44.8687 16.2166 44.8687 10.0853H39.7742C39.7742 13.4723 37.5899 15.477 34.2926 15.477C30.9954 15.477 28.8111 13.4723 28.8111 10.0853C28.8111 6.69816 30.9885 4.7212 34.2926 4.7212C37.5968 4.7212 39.7742 6.72581 39.7742 10.0853H44.8756C44.8756 3.95392 40.3687 0.0622121 34.2926 0.0622121C28.2166 0.0622121 23.7097 3.95392 23.7097 10.0853C23.7097 16.2166 28.1889 20.1359 34.2926 20.1359H34.2857ZM60.477 0C56.0876 0 52.4032 2.61982 52.4032 6.2765C52.3963 10.6452 57.4424 11.682 60.8295 12.3249C62.6889 12.6774 64.3341 13.0922 64.3341 14.0668C64.3341 15.159 62.8617 15.6014 61.0645 15.6014C59.2673 15.6014 57.6774 14.8618 57.083 13.6866H51.8986V14.924C53.3433 18.3111 56.7926 20.1982 60.947 20.1982C65.6889 20.1982 69.3456 17.841 69.3456 13.977C69.3456 9.76037 64.3064 8.73041 60.8295 8.02534C59.1221 7.67281 57.3733 7.20276 57.3733 6.20046C57.3733 5.19816 58.6382 4.63825 60.3802 4.63825C61.9424 4.63825 63.5599 5.37788 64.0645 6.52535H69.2488V5.24654C67.8664 2.21198 64.6521 0 60.4355 0H60.477ZM75.553 4.98387H82.0369V19.7765H87.0484V4.98387H93.5323V0.62212H75.5599V4.98387H75.553ZM128.233 19.7765H133.244V0.62212H126.332L120.968 12.7051H120.47L115.085 0.62212H108.104V19.7765H113.115V8.22581H113.53L118.687 19.7765H122.751L127.818 8.22581H128.233V19.7765ZM142.514 19.7765H158.343V15.4147H147.518V12H157.742V7.63825H147.518V4.98387H158.295V0.62212H142.507V19.7765H142.514ZM167.316 19.7765H172.327V13.1475H175.749L180.346 19.7765H185.876V18.6912L181.189 12.3249V12.1452C182.347 11.7629 183.353 11.0198 184.058 10.0247C184.763 9.02955 185.131 7.83471 185.108 6.61521C185.108 2.93088 182.191 0.629032 178.244 0.629032H167.281V19.7765H167.316ZM178.223 5.26037C179.343 5.26037 180.083 5.84793 180.083 6.85023C180.083 7.85253 179.343 8.47465 178.223 8.47465H172.327V5.28111L178.223 5.26037ZM193.977 19.7765H198.988V0.62212H193.963V19.7765H193.977ZM208.341 19.7765H217.002C222.954 19.7765 227.523 16.1544 227.523 10.1682C227.523 4.18203 222.947 0.62212 216.995 0.62212H208.327V19.7765H208.341ZM217.002 4.98387C220.127 4.98387 222.429 6.80876 222.429 10.1682C222.429 13.5277 220.127 15.4147 217.002 15.4147H213.346V4.98387H217.002ZM235.714 19.7765H240.726V0.62212H235.714V19.7765ZM250.078 19.7765H265.908V15.4147H255.069V12H265.3V7.63825H255.069V4.98387H265.825V0.62212H250.058V19.7765H250.078ZM295.009 19.7765H300V0.62212H293.088L287.696 12.7051H287.198L281.848 0.62212H274.866V19.7765H279.878V8.22581H280.293L285.449 19.7765H289.514L294.581 8.22581H294.995L295.009 19.7765Z">
                                       </path></svg>