<svg width="20" height="21" viewBox="0 0 20 21" fill="none" xmlns="http://www.w3.org/2000/svg">
<g clip-path="url(#clip0_204_1047)">
<path d="M17.0282 3.81158C15.1494 1.93979 12.65 0.908295 9.98993 0.907227C7.33582 0.907227 4.83246 1.93781 2.94128 3.80914C1.04675 5.68369 0.00244141 8.17484 0 10.8146V10.8177V10.8195C0.000305176 12.4172 0.420074 14.029 1.21689 15.5003L0.0273132 20.9072L5.49652 19.6632C6.88171 20.3613 8.42728 20.7293 9.98611 20.7299H9.99008C12.6437 20.7299 15.1471 19.6992 17.0386 17.8277C18.9348 15.9516 19.9796 13.4637 19.9808 10.8222C19.9815 8.1994 18.9331 5.70963 17.0282 3.81158ZM9.98993 19.1689H9.98642C8.58673 19.1683 7.19986 18.8169 5.97595 18.1524L5.71732 18.012L2.08054 18.8392L2.87048 15.2491L2.7182 14.9865C1.96106 13.6808 1.56097 12.2395 1.56097 10.8178C1.56387 6.21622 5.3447 2.4682 9.98962 2.4682C12.2336 2.46912 14.342 3.33902 15.9265 4.91739C17.5349 6.52017 18.4204 8.61703 18.4196 10.8218C18.4178 15.4244 14.6362 19.1689 9.98993 19.1689Z" fill="#2C2C2C"/>
<path d="M7.27188 6.44873H6.83395C6.68152 6.44873 6.43402 6.5058 6.22467 6.73361C6.01517 6.96158 5.4248 7.51257 5.4248 8.63318C5.4248 9.75378 6.24374 10.8365 6.35788 10.9887C6.47217 11.1407 7.93869 13.5137 10.2614 14.4266C12.1918 15.1853 12.5847 15.0344 13.0035 14.9964C13.4225 14.9586 14.3556 14.4456 14.5461 13.9138C14.7365 13.382 14.7365 12.9261 14.6794 12.8309C14.6222 12.736 14.4698 12.679 14.2413 12.5652C14.0128 12.4512 12.8928 11.8909 12.6833 11.8148C12.4738 11.739 12.3215 11.701 12.169 11.9291C12.0166 12.1567 11.5678 12.6835 11.4345 12.8354C11.3013 12.9876 11.1679 13.0067 10.9393 12.8927C10.7108 12.7784 9.9823 12.5336 9.10934 11.7579C8.42987 11.1541 7.95837 10.3841 7.82501 10.1562C7.6918 9.92834 7.81082 9.80505 7.92542 9.69138C8.02811 9.58945 8.16681 9.44998 8.2811 9.31708C8.39523 9.18402 8.42773 9.08911 8.50403 8.93713C8.58017 8.78516 8.54202 8.6521 8.48495 8.53827C8.42773 8.42429 7.9892 7.29803 7.78595 6.8476H7.7861C7.6149 6.46826 7.43469 6.45544 7.27188 6.44873Z" fill="#2C2C2C"/>
</g>
<defs>
<clipPath id="clip0_204_1047">
<rect width="20" height="20" fill="white" transform="translate(0 0.907227)"/>
</clipPath>
</defs>
</svg>
