<svg width="26" height="8" viewBox="0 0 26 8" fill="none" xmlns="http://www.w3.org/2000/svg">
<path d="M1 3.5C0.723858 3.5 0.5 3.72386 0.5 4C0.5 4.27614 0.723858 4.5 1 4.5L1 3.5ZM25.3536 4.35356C25.5488 4.15829 25.5488 3.84171 25.3536 3.64645L22.1716 0.464468C21.9763 0.269206 21.6597 0.269206 21.4645 0.464468C21.2692 0.65973 21.2692 0.976313 21.4645 1.17157L24.2929 4L21.4645 6.82843C21.2692 7.02369 21.2692 7.34027 21.4645 7.53554C21.6597 7.7308 21.9763 7.7308 22.1716 7.53554L25.3536 4.35356ZM1 4.5L25 4.5L25 3.5L1 3.5L1 4.5Z" fill="black"/>
</svg>
