<?xml version="1.0" encoding="utf-8"?><svg width="20" height="21" fill="none" xmlns="http://www.w3.org/2000/svg" viewBox="0 0 20 21"><g clip-path="url(#sclip0_204_1047)" fill="#2C2C2C"><path d="M17.028 3.812A9.912 9.912 0 009.99.907 9.963 9.963 0 002.94 3.81 9.812 9.812 0 000 10.815v.005c0 1.597.42 3.209 1.217 4.68l-1.19 5.407 5.47-1.244a10.01 10.01 0 004.49 1.067h.003a9.964 9.964 0 007.049-2.902c1.896-1.876 2.94-4.364 2.942-7.006 0-2.623-1.048-5.112-2.953-7.01zM9.99 19.169h-.004c-1.4 0-2.786-.352-4.01-1.017l-.259-.14-3.636.827.79-3.59-.153-.263c-.757-1.305-1.157-2.747-1.157-4.168.003-4.602 3.784-8.35 8.429-8.35 2.244.001 4.352.871 5.937 2.45 1.608 1.602 2.493 3.699 2.493 5.904-.002 4.602-3.784 8.347-8.43 8.347z"/><path d="M7.272 6.449h-.438a.84.84 0 00-.61.285c-.209.228-.8.779-.8 1.9 0 1.12.82 2.202.934 2.355.114.152 1.58 2.525 3.903 3.438 1.93.758 2.324.607 2.743.57.418-.038 1.352-.551 1.542-1.083.19-.532.19-.988.133-1.083-.057-.095-.21-.152-.438-.266-.228-.114-1.348-.674-1.558-.75-.21-.076-.361-.114-.514.114-.152.228-.601.755-.735.906-.133.153-.266.172-.495.058-.228-.115-.957-.36-1.83-1.135-.68-.604-1.15-1.374-1.284-1.602-.133-.228-.014-.351.1-.465.103-.102.242-.241.356-.374.114-.133.147-.228.223-.38.076-.152.038-.285-.02-.399-.056-.114-.495-1.24-.698-1.69-.171-.38-.351-.393-.514-.4z"/></g><defs><clipPath id="sclip0_204_1047"><path fill="#fff" transform="translate(0 .907)" d="M0 0h20v20H0z"/></clipPath></defs></svg>