<?xml version="1.0" encoding="utf-8"?><svg width="20" height="20" fill="none" xmlns="http://www.w3.org/2000/svg" viewBox="0 0 20 20"><circle cx="10" cy="10" r="10" fill="#2C2C2C"/><path d="M6.928 8.81l.797 3.759c.008.042.045.07.087.07h5.903c.04 0 .074-.028.084-.064l1.307-3.963a.088.088 0 00-.091-.114H7.398l-.422-1.99a.265.265 0 00-.258-.214H4.123a.263.263 0 000 .526h2.382l.32 1.507.103.484zM12.874 13.158a.606.606 0 01.608.608.606.606 0 01-.608.609.606.606 0 01-.608-.609.606.606 0 01.608-.608zM8.8 13.158a.606.606 0 01.609.608.606.606 0 01-.608.609.606.606 0 01-.609-.609.606.606 0 01.609-.608z" fill="#fff"/></svg>