<?xml version="1.0" encoding="utf-8"?><svg width="20" height="20" fill="none" xmlns="http://www.w3.org/2000/svg" viewBox="0 0 20 20"><path d="M14.19 0H5.81A5.816 5.816 0 000 5.81v8.38A5.816 5.816 0 005.81 20h8.38A5.816 5.816 0 0020 14.19V5.81A5.816 5.816 0 0014.19 0zm4.248 14.19a4.252 4.252 0 01-4.248 4.248H5.81a4.252 4.252 0 01-4.247-4.248V5.81A4.252 4.252 0 015.81 1.563h8.38a4.252 4.252 0 014.248 4.247v8.38z" fill="#fff"/><path d="M10 4.61A5.397 5.397 0 004.61 10 5.397 5.397 0 0010 15.39 5.397 5.397 0 0015.39 10 5.397 5.397 0 0010 4.61zm0 9.218A3.832 3.832 0 016.172 10 3.832 3.832 0 0110 6.172 3.832 3.832 0 0113.828 10 3.832 3.832 0 0110 13.828zM15.469 5.313a.781.781 0 100-1.563.781.781 0 000 1.563z" fill="#fff"/></svg>