<?xml version="1.0" encoding="utf-8"?><svg viewBox="0 0 300 21" class="nn-logo__item" xmlns="http://www.w3.org/2000/svg" width="300" height="21"><path fill-rule="evenodd" clip-rule="evenodd" d="M10.369 13.68c3.947 0 6.864-2.565 6.864-6.546 0-3.982-2.91-6.512-6.864-6.512H0v19.154h5.012V13.68h5.357zm0-8.399a1.72 1.72 0 011.86 1.86 1.728 1.728 0 01-1.86 1.88H5.012V5.28h5.357zm23.917 14.855c6.069 0 10.583-3.92 10.583-10.05h-5.095c0 3.386-2.184 5.391-5.481 5.391-3.298 0-5.482-2.005-5.482-5.392 0-3.387 2.177-5.364 5.482-5.364 3.304 0 5.481 2.005 5.481 5.364h5.102c0-6.131-4.507-10.023-10.583-10.023-6.076 0-10.583 3.892-10.583 10.023 0 6.132 4.479 10.05 10.583 10.05h-.007zM60.477 0c-4.39 0-8.074 2.62-8.074 6.277-.007 4.368 5.04 5.405 8.427 6.048 1.859.352 3.504.767 3.504 1.742 0 1.092-1.472 1.534-3.27 1.534-1.797 0-3.387-.74-3.981-1.914h-5.184v1.237c1.444 3.387 4.894 5.274 9.048 5.274 4.742 0 8.399-2.357 8.399-6.221 0-4.217-5.04-5.247-8.517-5.952-1.707-.352-3.456-.822-3.456-1.825 0-1.002 1.265-1.562 3.007-1.562 1.562 0 3.18.74 3.684 1.887h5.185V5.247C67.866 2.212 64.652 0 60.436 0h.041zm15.076 4.984h6.484v14.792h5.011V4.984h6.484V.622H75.56v4.362h-.007zm52.68 14.792h5.011V.622h-6.912l-5.364 12.083h-.498L115.085.622h-6.981v19.154h5.011V8.226h.415l5.157 11.55h4.064l5.067-11.55h.415v11.55zm14.281 0h15.829v-4.361h-10.825V12h10.224V7.638h-10.224V4.984h10.777V.622h-15.788v19.154h.007zm24.802 0h5.011v-6.628h3.422l4.597 6.628h5.53v-1.085l-4.687-6.366v-.18a5.71 5.71 0 003.919-5.53c0-3.684-2.917-5.986-6.864-5.986h-10.963v19.148h.035zM178.223 5.26c1.12 0 1.86.588 1.86 1.59 0 1.003-.74 1.625-1.86 1.625h-5.896V5.28l5.896-.02zm15.754 14.516h5.011V.622h-5.025v19.154h.014zm14.364 0h8.661c5.952 0 10.521-3.622 10.521-9.608 0-5.986-4.576-9.546-10.528-9.546h-8.668v19.154h.014zm8.661-14.792c3.125 0 5.427 1.825 5.427 5.184 0 3.36-2.302 5.247-5.427 5.247h-3.656V4.984h3.656zm18.712 14.792h5.012V.622h-5.012v19.154zm14.364 0h15.83v-4.361h-10.839V12H265.3V7.638h-10.231V4.984h10.756V.622h-15.767v19.154h.02zm44.931 0H300V.622h-6.912l-5.392 12.083h-.498L281.848.622h-6.982v19.154h5.012V8.226h.415l5.156 11.55h4.065l5.067-11.55h.414l.014 11.55z"/></svg>