<?xml version="1.0" encoding="utf-8"?><svg width="15" height="15" fill="none" xmlns="http://www.w3.org/2000/svg" viewBox="0 0 15 15"><path d="M15 13.4l-.511-11.86A1.562 1.562 0 0012.921 0H2.077C1.22 0 .52.687.511 1.54l-.51 11.863-.001.03C0 14.296.703 15 1.567 15h11.866A1.57 1.57 0 0015 13.4zm-1.567.268H1.567c-.13 0-.231-.1-.236-.226l.51-11.86v-.025c0-.128.104-.225.236-.225h10.845c.132 0 .236.096.236.224v.027l.511 11.86a.233.233 0 01-.236.225z" fill="#2C2C2C"/><path d="M9.72 2.59a.67.67 0 00-.669.667v2.016c0 .849-.693 1.54-1.546 1.54-.853 0-1.545-.691-1.545-1.54V3.257a.665.665 0 10-1.33 0v2.016a2.88 2.88 0 005.76 0V3.257a.67.67 0 00-.67-.667z" fill="#2C2C2C"/></svg>