<?xml version="1.0" encoding="utf-8"?><svg width="20" height="20" fill="none" xmlns="http://www.w3.org/2000/svg" viewBox="0 0 20 20"><path d="M19.734 18.448l-6.199-6.199a7.539 7.539 0 001.617-4.673C15.152 3.4 11.754 0 7.576 0 3.4 0 0 3.399 0 7.576c0 4.178 3.399 7.576 7.576 7.576a7.54 7.54 0 004.673-1.617l6.2 6.199a.906.906 0 001.285 0 .91.91 0 000-1.286zM1.818 7.576a5.764 5.764 0 015.758-5.758 5.764 5.764 0 015.758 5.758 5.764 5.764 0 01-5.758 5.758 5.764 5.764 0 01-5.758-5.758z" fill="#2C2C2C"/></svg>