<?xml version="1.0" encoding="utf-8"?><svg width="20" height="21" fill="none" xmlns="http://www.w3.org/2000/svg" viewBox="0 0 20 21"><g clip-path="url(#hclip0_204_1050)" fill="#2C2C2C"><path d="M14.19.907H5.81A5.816 5.816 0 000 6.717v8.38a5.816 5.816 0 005.81 5.81h8.38a5.816 5.816 0 005.81-5.81v-8.38a5.816 5.816 0 00-5.81-5.81zm4.248 14.19a4.252 4.252 0 01-4.248 4.248H5.81a4.252 4.252 0 01-4.247-4.247V6.717A4.252 4.252 0 015.81 2.47h8.38a4.252 4.252 0 014.248 4.247v8.38z"/><path d="M10 5.517a5.397 5.397 0 00-5.39 5.39 5.397 5.397 0 005.39 5.39 5.397 5.397 0 005.39-5.39A5.397 5.397 0 0010 5.517zm0 9.218a3.833 3.833 0 01-3.828-3.828A3.832 3.832 0 0110 7.08a3.832 3.832 0 013.828 3.828A3.833 3.833 0 0110 14.735zM15.469 6.22a.781.781 0 100-1.563.781.781 0 000 1.563z"/></g><defs><clipPath id="hclip0_204_1050"><path fill="#fff" transform="translate(0 .907)" d="M0 0h20v20H0z"/></clipPath></defs></svg>