<?xml version="1.0" encoding="utf-8"?><svg viewBox="0 0 300 21" xmlns="http://www.w3.org/2000/svg" xmlns:xlink="http://www.w3.org/1999/xlink"><style>:root>svg{display:none}:root>svg:target{display:block}</style><svg fill="none" viewBox="0 0 3 15" id="icon-alert" xmlns="http://www.w3.org/2000/svg"><path d="M1.5 14.941a1.351 1.351 0 100-2.702 1.351 1.351 0 000 2.702zM2.848.059h-2.7v10.154h2.7V.059z" fill="#E4002E"/></svg><svg fill="none" viewBox="0 0 15 9" id="icon-arrow-down" xmlns="http://www.w3.org/2000/svg"><path d="M7.5 6.844L1.406.75H0l7.5 7.5L15 .75h-1.406L7.5 6.844z" fill="#000"/></svg><svg fill="none" viewBox="0 0 15 9" id="icon-arrow-up" xmlns="http://www.w3.org/2000/svg"><path d="M7.5 2.156l6.094 6.094H15L7.5.75 0 8.25h1.406L7.5 2.156z" fill="#000"/></svg><svg fill="none" viewBox="0 0 22 17" id="icon-bar" xmlns="http://www.w3.org/2000/svg"><path d="M4.019 1h13.867M4.019 16h13.867M1 8.477h20" stroke="#2C2C2C" stroke-linecap="round"/></svg><svg fill="none" viewBox="0 0 17 14" id="icon-bar-mobile" xmlns="http://www.w3.org/2000/svg"><path d="M1 1h15M1 7h15M1 13h15" stroke="#2C2C2C" stroke-width="1.8" stroke-linecap="round"/></svg><svg fill="none" viewBox="0 0 15 15" id="icon-cart" xmlns="http://www.w3.org/2000/svg"><path d="M15 13.4l-.511-11.86A1.562 1.562 0 0012.921 0H2.077C1.22 0 .52.687.511 1.54l-.51 11.863-.001.03C0 14.296.703 15 1.567 15h11.866A1.57 1.57 0 0015 13.4zm-1.567.268H1.567c-.13 0-.231-.1-.236-.226l.51-11.86v-.025c0-.128.104-.225.236-.225h10.845c.132 0 .236.096.236.224v.027l.511 11.86a.233.233 0 01-.236.225z" fill="#2C2C2C"/><path d="M9.72 2.59a.67.67 0 00-.669.667v2.016c0 .849-.693 1.54-1.546 1.54-.853 0-1.545-.691-1.545-1.54V3.257a.665.665 0 10-1.33 0v2.016a2.88 2.88 0 005.76 0V3.257a.67.67 0 00-.67-.667z" fill="#2C2C2C"/></svg><svg fill="none" viewBox="0 0 20 20" id="icon-cart-alt" xmlns="http://www.w3.org/2000/svg"><circle cx="10" cy="10" r="10" fill="#2C2C2C"/><path d="M6.928 8.81l.797 3.759c.008.042.045.07.087.07h5.903c.04 0 .074-.028.084-.064l1.307-3.963a.088.088 0 00-.091-.114H7.398l-.422-1.99a.265.265 0 00-.258-.214H4.123a.263.263 0 000 .526h2.382l.32 1.507.103.484zM12.874 13.158a.606.606 0 01.608.608.606.606 0 01-.608.609.606.606 0 01-.608-.609.606.606 0 01.608-.608zM8.8 13.158a.606.606 0 01.609.608.606.606 0 01-.608.609.606.606 0 01-.609-.609.606.606 0 01.609-.608z" fill="#fff"/></svg><svg fill="none" viewBox="0 0 10 7" id="icon-checkbox" xmlns="http://www.w3.org/2000/svg"><path d="M3.5 5.1L1.75 3.35a.492.492 0 00-.808.16.492.492 0 00.108.54l2.095 2.095c.195.195.51.195.705 0L9.15.85a.492.492 0 00-.16-.808.492.492 0 00-.54.108L3.5 5.1z" fill="#2C2C2C"/></svg><svg fill="none" viewBox="0 0 16 16" id="icon-close" xmlns="http://www.w3.org/2000/svg"><path d="M9.763 8l5.375-5.362A1.255 1.255 0 1013.363.863L8 6.238 2.638.863A1.255 1.255 0 10.863 2.638L6.238 8 .863 13.363a1.25 1.25 0 000 1.775 1.248 1.248 0 001.775 0L8 9.763l5.363 5.375a1.249 1.249 0 001.775 0 1.248 1.248 0 000-1.775L9.763 8z" fill="#000"/></svg><svg fill="none" viewBox="0 0 20 21" id="icon-insta-black" xmlns="http://www.w3.org/2000/svg"><g clip-path="url(#jclip0_204_1050)" fill="#2C2C2C"><path d="M14.19.907H5.81A5.816 5.816 0 000 6.717v8.38a5.816 5.816 0 005.81 5.81h8.38a5.816 5.816 0 005.81-5.81v-8.38a5.816 5.816 0 00-5.81-5.81zm4.248 14.19a4.252 4.252 0 01-4.248 4.248H5.81a4.252 4.252 0 01-4.247-4.247V6.717A4.252 4.252 0 015.81 2.47h8.38a4.252 4.252 0 014.248 4.247v8.38z"/><path d="M10 5.517a5.397 5.397 0 00-5.39 5.39 5.397 5.397 0 005.39 5.39 5.397 5.397 0 005.39-5.39A5.397 5.397 0 0010 5.517zm0 9.218a3.833 3.833 0 01-3.828-3.828A3.832 3.832 0 0110 7.08a3.832 3.832 0 013.828 3.828A3.833 3.833 0 0110 14.735zM15.469 6.22a.781.781 0 100-1.563.781.781 0 000 1.563z"/></g><defs><clipPath id="jclip0_204_1050"><path fill="#fff" transform="translate(0 .907)" d="M0 0h20v20H0z"/></clipPath></defs></svg><svg fill="none" viewBox="0 0 20 20" id="icon-insta-white" xmlns="http://www.w3.org/2000/svg"><path d="M14.19 0H5.81A5.816 5.816 0 000 5.81v8.38A5.816 5.816 0 005.81 20h8.38A5.816 5.816 0 0020 14.19V5.81A5.816 5.816 0 0014.19 0zm4.248 14.19a4.252 4.252 0 01-4.248 4.248H5.81a4.252 4.252 0 01-4.247-4.248V5.81A4.252 4.252 0 015.81 1.563h8.38a4.252 4.252 0 014.248 4.247v8.38z" fill="#fff"/><path d="M10 4.61A5.397 5.397 0 004.61 10 5.397 5.397 0 0010 15.39 5.397 5.397 0 0015.39 10 5.397 5.397 0 0010 4.61zm0 9.218A3.832 3.832 0 016.172 10 3.832 3.832 0 0110 6.172 3.832 3.832 0 0113.828 10 3.832 3.832 0 0110 13.828zM15.469 5.313a.781.781 0 100-1.563.781.781 0 000 1.563z" fill="#fff"/></svg><svg fill="none" viewBox="0 0 217 8" id="icon-logn-left" xmlns="http://www.w3.org/2000/svg"><path d="M216 3.5a.5.5 0 010 1v-1zM.646 4.354a.5.5 0 010-.708L3.828.464a.5.5 0 01.708.708L1.707 4l2.829 2.828a.5.5 0 01-.708.708L.646 4.354zM216 4.5H1v-1h215v1z" fill="#2C2C2C"/></svg><svg fill="none" viewBox="0 0 217 8" id="icon-logn-right" xmlns="http://www.w3.org/2000/svg"><path d="M1 3.5a.5.5 0 000 1v-1zm215.354.854a.5.5 0 000-.708L213.172.464a.501.501 0 00-.708.708L215.293 4l-2.829 2.828a.5.5 0 00.708.708l3.182-3.182zM1 4.5h215v-1H1v1z" fill="#2C2C2C"/></svg><svg viewBox="0 0 300 21" class="nn-logo__item" id="icon-logo" xmlns="http://www.w3.org/2000/svg"><path fill-rule="evenodd" clip-rule="evenodd" d="M10.369 13.68c3.947 0 6.864-2.565 6.864-6.546 0-3.982-2.91-6.512-6.864-6.512H0v19.154h5.012V13.68h5.357zm0-8.399a1.72 1.72 0 011.86 1.86 1.728 1.728 0 01-1.86 1.88H5.012V5.28h5.357zm23.917 14.855c6.069 0 10.583-3.92 10.583-10.05h-5.095c0 3.386-2.184 5.391-5.481 5.391-3.298 0-5.482-2.005-5.482-5.392 0-3.387 2.177-5.364 5.482-5.364 3.304 0 5.481 2.005 5.481 5.364h5.102c0-6.131-4.507-10.023-10.583-10.023-6.076 0-10.583 3.892-10.583 10.023 0 6.132 4.479 10.05 10.583 10.05h-.007zM60.477 0c-4.39 0-8.074 2.62-8.074 6.277-.007 4.368 5.04 5.405 8.427 6.048 1.859.352 3.504.767 3.504 1.742 0 1.092-1.472 1.534-3.27 1.534-1.797 0-3.387-.74-3.981-1.914h-5.184v1.237c1.444 3.387 4.894 5.274 9.048 5.274 4.742 0 8.399-2.357 8.399-6.221 0-4.217-5.04-5.247-8.517-5.952-1.707-.352-3.456-.822-3.456-1.825 0-1.002 1.265-1.562 3.007-1.562 1.562 0 3.18.74 3.684 1.887h5.185V5.247C67.866 2.212 64.652 0 60.436 0h.041zm15.076 4.984h6.484v14.792h5.011V4.984h6.484V.622H75.56v4.362h-.007zm52.68 14.792h5.011V.622h-6.912l-5.364 12.083h-.498L115.085.622h-6.981v19.154h5.011V8.226h.415l5.157 11.55h4.064l5.067-11.55h.415v11.55zm14.281 0h15.829v-4.361h-10.825V12h10.224V7.638h-10.224V4.984h10.777V.622h-15.788v19.154h.007zm24.802 0h5.011v-6.628h3.422l4.597 6.628h5.53v-1.085l-4.687-6.366v-.18a5.71 5.71 0 003.919-5.53c0-3.684-2.917-5.986-6.864-5.986h-10.963v19.148h.035zM178.223 5.26c1.12 0 1.86.588 1.86 1.59 0 1.003-.74 1.625-1.86 1.625h-5.896V5.28l5.896-.02zm15.754 14.516h5.011V.622h-5.025v19.154h.014zm14.364 0h8.661c5.952 0 10.521-3.622 10.521-9.608 0-5.986-4.576-9.546-10.528-9.546h-8.668v19.154h.014zm8.661-14.792c3.125 0 5.427 1.825 5.427 5.184 0 3.36-2.302 5.247-5.427 5.247h-3.656V4.984h3.656zm18.712 14.792h5.012V.622h-5.012v19.154zm14.364 0h15.83v-4.361h-10.839V12H265.3V7.638h-10.231V4.984h10.756V.622h-15.767v19.154h.02zm44.931 0H300V.622h-6.912l-5.392 12.083h-.498L281.848.622h-6.982v19.154h5.012V8.226h.415l5.156 11.55h4.065l5.067-11.55h.414l.014 11.55z"/></svg><svg fill="none" viewBox="0 0 19 8" id="icon-middle-left" xmlns="http://www.w3.org/2000/svg"><path d="M18 4.5a.5.5 0 000-1v1zM.646 3.646a.5.5 0 000 .708l3.182 3.182a.5.5 0 10.708-.708L1.707 4l2.829-2.828a.5.5 0 10-.708-.708L.646 3.646zM18 3.5H1v1h17v-1z" fill="#2C2C2C"/></svg><svg fill="none" viewBox="0 0 26 8" id="icon-middle-right" xmlns="http://www.w3.org/2000/svg"><path d="M1 3.5a.5.5 0 000 1v-1zm24.354.854a.5.5 0 000-.708L22.172.464a.5.5 0 10-.707.708L24.293 4l-2.828 2.828a.5.5 0 10.707.708l3.182-3.182zM1 4.5h24v-1H1v1z" fill="#000"/></svg><svg fill="none" viewBox="0 0 20 20" id="icon-search" xmlns="http://www.w3.org/2000/svg"><path d="M19.734 18.448l-6.199-6.199a7.539 7.539 0 001.617-4.673C15.152 3.4 11.754 0 7.576 0 3.4 0 0 3.399 0 7.576c0 4.178 3.399 7.576 7.576 7.576a7.54 7.54 0 004.673-1.617l6.2 6.199a.906.906 0 001.285 0 .91.91 0 000-1.286zM1.818 7.576a5.764 5.764 0 015.758-5.758 5.764 5.764 0 015.758 5.758 5.764 5.764 0 01-5.758 5.758 5.764 5.764 0 01-5.758-5.758z" fill="#2C2C2C"/></svg><svg fill="none" viewBox="0 0 19 8" id="icon-short-left" xmlns="http://www.w3.org/2000/svg"><path d="M18 4.5a.5.5 0 000-1v1zM.646 3.646a.5.5 0 000 .708l3.182 3.182a.5.5 0 10.708-.708L1.707 4l2.829-2.828a.5.5 0 10-.708-.708L.646 3.646zM18 3.5H1v1h17v-1z" fill="#2C2C2C"/></svg><svg fill="none" viewBox="0 0 12 8" id="icon-short-right" xmlns="http://www.w3.org/2000/svg"><path d="M1 3.5a.5.5 0 000 1v-1zm10.354.854a.5.5 0 000-.708L8.172.464a.5.5 0 10-.708.708L10.293 4 7.464 6.828a.5.5 0 10.708.708l3.182-3.182zM1 4.5h10v-1H1v1z" fill="#2C2C2C"/></svg><svg fill="none" viewBox="0 0 20 21" id="icon-whatsapp-black" xmlns="http://www.w3.org/2000/svg"><g clip-path="url(#tclip0_204_1047)" fill="#2C2C2C"><path d="M17.028 3.812A9.912 9.912 0 009.99.907 9.963 9.963 0 002.94 3.81 9.812 9.812 0 000 10.815v.005c0 1.597.42 3.209 1.217 4.68l-1.19 5.407 5.47-1.244a10.01 10.01 0 004.49 1.067h.003a9.964 9.964 0 007.049-2.902c1.896-1.876 2.94-4.364 2.942-7.006 0-2.623-1.048-5.112-2.953-7.01zM9.99 19.169h-.004c-1.4 0-2.786-.352-4.01-1.017l-.259-.14-3.636.827.79-3.59-.153-.263c-.757-1.305-1.157-2.747-1.157-4.168.003-4.602 3.784-8.35 8.429-8.35 2.244.001 4.352.871 5.937 2.45 1.608 1.602 2.493 3.699 2.493 5.904-.002 4.602-3.784 8.347-8.43 8.347z"/><path d="M7.272 6.449h-.438a.84.84 0 00-.61.285c-.209.228-.8.779-.8 1.9 0 1.12.82 2.202.934 2.355.114.152 1.58 2.525 3.903 3.438 1.93.758 2.324.607 2.743.57.418-.038 1.352-.551 1.542-1.083.19-.532.19-.988.133-1.083-.057-.095-.21-.152-.438-.266-.228-.114-1.348-.674-1.558-.75-.21-.076-.361-.114-.514.114-.152.228-.601.755-.735.906-.133.153-.266.172-.495.058-.228-.115-.957-.36-1.83-1.135-.68-.604-1.15-1.374-1.284-1.602-.133-.228-.014-.351.1-.465.103-.102.242-.241.356-.374.114-.133.147-.228.223-.38.076-.152.038-.285-.02-.399-.056-.114-.495-1.24-.698-1.69-.171-.38-.351-.393-.514-.4z"/></g><defs><clipPath id="tclip0_204_1047"><path fill="#fff" transform="translate(0 .907)" d="M0 0h20v20H0z"/></clipPath></defs></svg></svg>